<?xml version="1.0" encoding="utf-8"?>
<!-- Generator: Adobe Illustrator 16.0.4, SVG Export Plug-In . SVG Version: 6.00 Build 0)  -->
<!DOCTYPE svg PUBLIC "-//W3C//DTD SVG 1.1//EN" "http://www.w3.org/Graphics/SVG/1.1/DTD/svg11.dtd">
<svg version="1.1" id="Layer_1" xmlns="http://www.w3.org/2000/svg" xmlns:xlink="http://www.w3.org/1999/xlink" x="0px" y="0px"
	 width="1025px" height="425px" viewBox="0 0 1025 425" enable-background="new 0 0 1025 425" xml:space="preserve">
<g id="Vector_1_">
	<g>
		<rect x="25" y="49.925" fill="#ED2224" width="24.949" height="285.69"/>
		<rect x="62.518" y="49.925" fill="#ED2224" width="24.949" height="298.025"/>
		<rect x="100.034" y="49.925" fill="#ED2224" width="24.949" height="322.987"/>
		<rect x="137.552" y="62.335" fill="#ED2224" width="24.949" height="322.909"/>
		<rect x="175.067" y="87.298" fill="#ED2224" width="24.947" height="285.614"/>
		<rect x="212.585" y="99.632" fill="#ED2224" width="24.949" height="298.093"/>
		<rect x="250.105" y="87.298" fill="#ED2224" width="24.949" height="273.136"/>
		<rect x="287.623" y="62.259" fill="#ED2224" width="24.949" height="260.94"/>
		<rect x="325.139" y="49.925" fill="#ED2224" width="24.949" height="235.47"/>
		<rect x="362.657" y="25" fill="#ED2224" width="24.949" height="211.056"/>
	</g>
</g>
<text transform="matrix(1 0 0 1 457.1113 108.7378)"><tspan x="0" y="0" font-family="'TimesNewRomanPSMT'" font-size="100.0883" letter-spacing="2">dayton</tspan><tspan x="0" y="100.088" font-family="'TimesNewRomanPSMT'" font-size="100.0883" letter-spacing="2">data</tspan><tspan x="0" y="200.177" font-family="'TimesNewRomanPSMT'" font-size="100.0883" letter-spacing="2">visualization</tspan></text>
<text transform="matrix(1 0 0 1 350 375.0005)" font-family="'TimesNewRomanPSMT'" font-size="100.0883" letter-spacing="2">ddv.</text>
</svg>
